<?xml version="1.0" encoding="UTF-8"?>
<svg id="Layer_2" xmlns="http://www.w3.org/2000/svg" viewBox="0 0 205 96">
  <g id="Layer_1-2" data-name="Layer_1">
    <g>
      <g>
        <g>
          <path d="M100.91,51.97c-2.29,0-4.24-.57-5.85-1.7-1.6-1.13-2.81-2.65-3.62-4.55-.81-1.9-1.22-4.03-1.22-6.39V12.63c0-1.73.43-3.37,1.29-4.91.86-1.54,2-2.89,3.41-4.04,1.41-1.16,2.98-2.06,4.7-2.71s3.44-.97,5.16-.97c2.34,0,4.61.57,6.81,1.7,2.2,1.13,4.03,2.65,5.49,4.55,1.46,1.9,2.19,4.03,2.19,6.39v5.12h-10.61v-4.04c0-1.11-.42-1.99-1.25-2.63-.84-.65-1.71-.97-2.62-.97s-1.78.32-2.62.97c-.84.65-1.25,1.53-1.25,2.63v24.18c0,1.06.45,2,1.36,2.81.91.82,1.89,1.23,2.94,1.23s2.1-.41,3.01-1.23c.91-.82,1.36-1.76,1.36-2.81v-4.62h-4.88v-10.11h14.56v28.08h-9.68v-2.53h-1.08c-.24.63-.8,1.18-1.69,1.66-.89.48-1.87.87-2.94,1.16s-2.07.43-2.98.43Z"/>
          <path d="M135.41,51.97c-2.29,0-4.4-.57-6.31-1.7-1.91-1.13-3.43-2.65-4.55-4.55-1.12-1.9-1.69-4.03-1.69-6.39V12.63c0-2.36.56-4.49,1.69-6.39,1.12-1.9,2.64-3.42,4.55-4.55,1.91-1.13,4.02-1.7,6.31-1.7s4.4.57,6.31,1.7c1.91,1.13,3.43,2.65,4.55,4.55,1.12,1.9,1.69,4.03,1.69,6.39v26.71c0,2.36-.56,4.49-1.69,6.39-1.12,1.9-2.64,3.42-4.55,4.55-1.91,1.13-4.02,1.7-6.31,1.7ZM135.41,42.45c.53,0,.96-.18,1.29-.54s.5-.78.5-1.26V11.26c0-.53-.17-.97-.5-1.34s-.77-.54-1.29-.54-.97.18-1.33.54c-.36.36-.54.81-.54,1.34v29.38c0,.48.18.9.54,1.26.36.36.8.54,1.33.54Z"/>
          <path d="M163.45,51.97c-2.29,0-4.4-.57-6.31-1.7-1.91-1.13-3.43-2.65-4.55-4.55-1.12-1.9-1.69-4.03-1.69-6.39V12.63c0-2.36.56-4.49,1.69-6.39,1.12-1.9,2.64-3.42,4.55-4.55,1.91-1.13,4.02-1.7,6.31-1.7s4.4.57,6.31,1.7c1.91,1.13,3.43,2.65,4.55,4.55,1.12,1.9,1.69,4.03,1.69,6.39v26.71c0,2.36-.56,4.49-1.69,6.39-1.12,1.9-2.64,3.42-4.55,4.55-1.91,1.13-4.02,1.7-6.31,1.7ZM163.45,42.45c.53,0,.96-.18,1.29-.54s.5-.78.5-1.26V11.26c0-.53-.17-.97-.5-1.34s-.77-.54-1.29-.54-.97.18-1.33.54c-.36.36-.54.81-.54,1.34v29.38c0,.48.18.9.54,1.26.36.36.8.54,1.33.54Z"/>
          <path d="M179.66,51.25V.72h12.55c2.34,0,4.46.57,6.35,1.7,1.89,1.13,3.39,2.65,4.52,4.55,1.12,1.9,1.69,4.03,1.69,6.39v25.27c0,2.36-.56,4.49-1.69,6.39-1.12,1.9-2.63,3.42-4.52,4.55-1.89,1.13-4.01,1.7-6.35,1.7h-12.55ZM190.34,41.94h2.01c.48,0,.87-.17,1.18-.5s.47-.72.47-1.16V11.77c0-.43-.16-.82-.47-1.16-.31-.34-.71-.5-1.18-.5h-2.01v31.83Z"/>
        </g>
        <g>
          <path d="M91.12,95.07v-35.01h7.7c1.79,0,3.41.43,4.87,1.3,1.46.87,2.63,2.03,3.5,3.5.88,1.47,1.32,3.1,1.32,4.9v6c0,1.8-.44,3.43-1.32,4.9-.88,1.47-2.05,2.63-3.5,3.5-1.46.87-3.08,1.3-4.87,1.3h-.3v9.6h-7.4ZM98.52,78.97h.15c.43,0,.83-.05,1.19-.15.36-.1.65-.38.87-.85.21-.47.32-1.25.32-2.35v-5.65c0-1.13-.11-1.93-.32-2.4-.22-.47-.51-.75-.87-.85-.37-.1-.76-.15-1.19-.15h-.15v12.4Z"/>
          <path d="M119.19,95.57c-1.59,0-3.05-.39-4.37-1.18-1.33-.78-2.38-1.83-3.16-3.15-.78-1.32-1.17-2.79-1.17-4.43v-18.51c0-1.63.39-3.11,1.17-4.43.78-1.32,1.83-2.37,3.16-3.15,1.32-.78,2.78-1.18,4.37-1.18s3.05.39,4.37,1.18c1.32.78,2.38,1.83,3.15,3.15.78,1.32,1.17,2.79,1.17,4.43v18.51c0,1.63-.39,3.11-1.17,4.43-.78,1.32-1.83,2.37-3.15,3.15-1.33.78-2.78,1.18-4.37,1.18ZM119.19,88.97c.36,0,.66-.13.89-.38s.35-.54.35-.88v-20.36c0-.37-.12-.67-.35-.93s-.53-.38-.89-.38-.67.13-.92.38c-.25.25-.37.56-.37.93v20.36c0,.33.12.63.37.88.25.25.55.38.92.38Z"/>
          <path d="M138.87,95.57c-1.59,0-3.05-.39-4.37-1.18-1.33-.78-2.38-1.83-3.16-3.15-.78-1.32-1.17-2.79-1.17-4.43v-18.51c0-1.63.39-3.11,1.17-4.43.78-1.32,1.83-2.37,3.16-3.15,1.32-.78,2.78-1.18,4.37-1.18s3.09.39,4.4,1.18c1.31.78,2.35,1.83,3.13,3.15.78,1.32,1.17,2.79,1.17,4.43v5.5h-7.35v-5.95c0-.37-.13-.67-.4-.93-.27-.25-.58-.38-.94-.38-.33,0-.63.13-.89.38s-.4.56-.4.93v19.46c0,.33.13.63.4.9.27.27.56.4.89.4.36,0,.68-.13.94-.4.26-.27.4-.57.4-.9v-6h7.35v5.5c0,1.63-.39,3.11-1.17,4.43-.78,1.32-1.82,2.37-3.13,3.15-1.31.78-2.78,1.18-4.4,1.18Z"/>
          <path d="M150.3,95.07v-35.01h7.4v10h.5l2.04-10h7.45v1l-4.97,14.2v.75l4.97,18.06v1h-7.45l-2.04-10.8h-.5v10.8h-7.4Z"/>
          <path d="M177.92,95.57c-1.59,0-3.05-.39-4.37-1.18-1.33-.78-2.38-1.83-3.16-3.15-.78-1.32-1.17-2.79-1.17-4.43v-18.51c0-1.63.39-3.11,1.17-4.43.78-1.32,1.83-2.37,3.16-3.15,1.32-.78,2.78-1.18,4.37-1.18s3.05.39,4.37,1.18c1.32.78,2.38,1.83,3.15,3.15.78,1.32,1.17,2.79,1.17,4.43v11.2h-9.99v7.8c0,.33.12.63.37.9.25.27.55.4.92.4s.66-.13.89-.4c.23-.27.35-.57.35-.9v-5.25h7.45v5.3c-.07,1.53-.51,2.92-1.32,4.15-.81,1.23-1.86,2.22-3.13,2.95-1.28.73-2.69,1.1-4.25,1.1ZM176.63,72.51h2.53v-5.2c0-.37-.12-.67-.35-.9-.23-.23-.53-.35-.89-.35s-.67.12-.92.35c-.25.23-.37.53-.37.9v5.2Z"/>
          <path d="M192.83,95.07v-28.51h-4.72v-6.5h16.89v6.5h-4.72v28.51h-7.45Z"/>
        </g>
      </g>
      <g>
        <g>
          <path d="M17.99,19.34H0v-7.7C0,5.93,4.37,1.25,9.94.82l8.05,18.52Z"/>
          <polygon points="22.7 19.34 14.63 .79 33.34 .79 41.48 19.34 22.7 19.34"/>
          <polygon points="46.19 19.34 38.05 .79 56.84 .79 64.98 19.34 46.19 19.34"/>
          <path d="M80.84,11.64v7.7h-11.15L61.55.79h8.5c5.95,0,10.78,4.86,10.78,10.85Z"/>
        </g>
        <path d="M0,23.68v40.94c0,3.51,1.68,6.8,4.52,8.84l27.24,19.52c5.72,4.1,13.42,4.01,19.05-.21l25.69-19.3c2.73-2.05,4.33-5.27,4.33-8.7V23.68H0ZM62.97,28.96h5.64v2.3h-5.64v-2.3ZM46.06,28.96h5.64v2.3h-5.64v-2.3ZM37.6,28.96h5.64v2.3h-5.64v-2.3ZM29.14,28.96h5.64v2.3h-5.64v-2.3ZM12.22,28.96h5.64v2.3h-5.64v-2.3ZM5.5,28.96h3.91v2.3h-1.61v1.61h-2.3v-3.91ZM5.5,35.58h2.3v5.38h-2.3v-5.38ZM5.5,43.65h2.3v5.38h-2.3v-5.38ZM5.5,51.71h2.3v5.38h-2.3v-5.38ZM5.5,63.03v-3.26h2.3v3.26c0,.58.1,1.16.28,1.71l-2.18.74c-.27-.79-.41-1.62-.41-2.45ZM11.97,71.57l-3.31-2.37c-.42-.3-.8-.64-1.15-1.01l1.69-1.56c.24.26.51.5.8.7l3.31,2.37-1.34,1.87ZM18.52,76.27l-4.37-3.13,1.34-1.87,4.37,3.13-1.34,1.87ZM20.68,28.96h5.64v2.3h-5.64v-2.3ZM25.07,80.97l-4.37-3.13,1.34-1.87,4.37,3.13-1.34,1.87ZM31.62,85.66l-4.37-3.13,1.34-1.87,4.37,3.13-1.34,1.87ZM39.02,89.78c-1.51-.3-2.9-.9-4.16-1.8l-1.06-.76,1.34-1.87,1.06.76c.98.7,2.08,1.18,3.26,1.41l-.44,2.26ZM35.73,65.22c-.87.51-1.97-.12-1.97-1.13v-19.5c0-1.01,1.09-1.64,1.97-1.13l16.77,9.75c.87.5.87,1.76,0,2.27l-16.77,9.75ZM47.48,87.84c-1.59,1.2-3.48,1.92-5.46,2.1l-.2-2.29c1.55-.14,3.03-.71,4.28-1.65l1.45,1.79-.07.05ZM49.7,86.18l-1.38-1.84,4.3-3.23,1.38,1.84-4.3,3.23ZM54.52,28.96h5.64v2.3h-5.64v-2.3ZM56.14,81.34l-1.38-1.84,4.3-3.23,1.38,1.84-4.3,3.23ZM62.59,76.5l-1.38-1.84,4.3-3.23,1.38,1.84-4.3,3.23ZM72.31,69.19l-3.28,2.46-1.38-1.84,3.28-2.47c.28-.21.53-.44.76-.7l1.72,1.53c-.33.37-.7.71-1.1,1.01ZM75.34,63.12c0,.79-.12,1.57-.36,2.33l-2.19-.7c.17-.53.25-1.07.25-1.62v-3.37h2.3v3.37ZM75.34,57.06h-2.3v-5.38h2.3v5.38ZM75.34,49h-2.3v-5.38h2.3v5.38ZM75.34,40.94h-2.3v-5.38h2.3v5.38ZM75.34,32.87h-2.3v-1.61h-1.61v-2.3h3.91v3.91Z"/>
      </g>
    </g>
  </g>
</svg>