<?xml version="1.0" encoding="UTF-8"?>
<svg id="Layer_2" xmlns="http://www.w3.org/2000/svg" viewBox="0 0 137 64">
  <g id="Layer_1-2" data-name="Layer_1">
    <g>
      <g>
        <g>
          <path d="M67.44,34.65c-1.53,0-2.84-.38-3.91-1.13-1.07-.75-1.88-1.76-2.42-3.03-.54-1.27-.81-2.69-.81-4.26V8.42c0-1.16.29-2.25.86-3.27.58-1.03,1.33-1.92,2.28-2.69.94-.77,1.99-1.37,3.14-1.8s2.3-.65,3.45-.65c1.56,0,3.08.38,4.55,1.13,1.47.75,2.69,1.76,3.67,3.03.97,1.27,1.46,2.69,1.46,4.26v3.42h-7.09v-2.69c0-.74-.28-1.32-.84-1.76-.56-.43-1.14-.65-1.75-.65s-1.19.22-1.75.65c-.56.43-.84,1.02-.84,1.76v16.12c0,.71.3,1.33.91,1.88.61.55,1.26.82,1.96.82s1.41-.27,2.01-.82c.61-.54.91-1.17.91-1.88v-3.08h-3.26v-6.74h9.73v18.72h-6.47v-1.68h-.72c-.16.42-.54.79-1.13,1.11-.59.32-1.25.58-1.97.77s-1.38.29-1.99.29Z"/>
          <path d="M90.49,34.65c-1.53,0-2.94-.38-4.22-1.13-1.28-.75-2.29-1.76-3.04-3.03-.75-1.27-1.13-2.69-1.13-4.26V8.42c0-1.57.38-2.99,1.13-4.26.75-1.27,1.77-2.28,3.04-3.03,1.28-.75,2.68-1.13,4.22-1.13s2.94.38,4.22,1.13c1.28.75,2.29,1.76,3.04,3.03.75,1.27,1.13,2.69,1.13,4.26v17.81c0,1.57-.38,2.99-1.13,4.26-.75,1.27-1.77,2.28-3.04,3.03-1.28.75-2.68,1.13-4.22,1.13ZM90.49,28.3c.35,0,.64-.12.86-.36s.34-.52.34-.84V7.51c0-.35-.11-.65-.34-.89s-.51-.36-.86-.36-.65.12-.89.36c-.24.24-.36.54-.36.89v19.59c0,.32.12.6.36.84.24.24.53.36.89.36Z"/>
          <path d="M109.23,34.65c-1.53,0-2.94-.38-4.22-1.13-1.28-.75-2.29-1.76-3.04-3.03-.75-1.27-1.13-2.69-1.13-4.26V8.42c0-1.57.38-2.99,1.13-4.26.75-1.27,1.77-2.28,3.04-3.03,1.28-.75,2.68-1.13,4.22-1.13s2.94.38,4.22,1.13c1.28.75,2.29,1.76,3.04,3.03.75,1.27,1.13,2.69,1.13,4.26v17.81c0,1.57-.38,2.99-1.13,4.26-.75,1.27-1.77,2.28-3.04,3.03-1.28.75-2.68,1.13-4.22,1.13ZM109.23,28.3c.35,0,.64-.12.86-.36s.34-.52.34-.84V7.51c0-.35-.11-.65-.34-.89s-.51-.36-.86-.36-.65.12-.89.36c-.24.24-.36.54-.36.89v19.59c0,.32.12.6.36.84.24.24.53.36.89.36Z"/>
          <path d="M120.06,34.17V.48h8.39c1.56,0,2.98.38,4.24,1.13,1.26.75,2.27,1.76,3.02,3.03.75,1.27,1.13,2.69,1.13,4.26v16.84c0,1.57-.38,2.99-1.13,4.26-.75,1.27-1.76,2.28-3.02,3.03-1.26.75-2.68,1.13-4.24,1.13h-8.39ZM127.21,27.96h1.34c.32,0,.58-.11.79-.34s.31-.48.31-.77V7.84c0-.29-.1-.55-.31-.77-.21-.22-.47-.34-.79-.34h-1.34v21.22Z"/>
        </g>
        <g>
          <path d="M60.89,63.38v-23.34h5.15c1.2,0,2.28.29,3.25.87.97.58,1.75,1.36,2.34,2.33.59.98.88,2.07.88,3.27v4c0,1.2-.29,2.29-.88,3.27-.59.98-1.37,1.76-2.34,2.33-.97.58-2.06.87-3.25.87h-.2v6.4h-4.95ZM65.84,52.64h.1c.29,0,.55-.03.8-.1.24-.07.44-.26.58-.57.14-.31.22-.83.22-1.57v-3.77c0-.76-.07-1.29-.22-1.6-.14-.31-.34-.5-.58-.57-.24-.07-.51-.1-.8-.1h-.1v8.27Z"/>
          <path d="M79.65,63.71c-1.06,0-2.04-.26-2.92-.78-.89-.52-1.59-1.22-2.11-2.1-.52-.88-.78-1.86-.78-2.95v-12.34c0-1.09.26-2.07.78-2.95.52-.88,1.22-1.58,2.11-2.1.88-.52,1.86-.78,2.92-.78s2.04.26,2.92.78c.89.52,1.59,1.22,2.11,2.1.52.88.78,1.86.78,2.95v12.34c0,1.09-.26,2.07-.78,2.95-.52.88-1.22,1.58-2.11,2.1-.89.52-1.86.78-2.92.78ZM79.65,59.31c.24,0,.44-.08.6-.25s.23-.36.23-.58v-13.57c0-.24-.08-.45-.23-.62s-.35-.25-.6-.25-.45.08-.61.25c-.17.17-.25.37-.25.62v13.57c0,.22.08.42.25.58.17.17.37.25.61.25Z"/>
          <path d="M92.8,63.71c-1.06,0-2.04-.26-2.92-.78-.89-.52-1.59-1.22-2.11-2.1-.52-.88-.78-1.86-.78-2.95v-12.34c0-1.09.26-2.07.78-2.95.52-.88,1.22-1.58,2.11-2.1.89-.52,1.86-.78,2.92-.78s2.06.26,2.94.78c.87.52,1.57,1.22,2.09,2.1.52.88.78,1.86.78,2.95v3.67h-4.91v-3.97c0-.24-.09-.45-.27-.62-.18-.17-.39-.25-.63-.25-.22,0-.42.08-.6.25s-.27.37-.27.62v12.97c0,.22.09.42.27.6.18.18.38.27.6.27.24,0,.45-.09.63-.27.18-.18.27-.38.27-.6v-4h4.91v3.67c0,1.09-.26,2.07-.78,2.95-.52.88-1.22,1.58-2.09,2.1-.88.52-1.85.78-2.94.78Z"/>
          <path d="M100.44,63.38v-23.34h4.95v6.67h.33l1.36-6.67h4.98v.67l-3.32,9.47v.5l3.32,12.04v.67h-4.98l-1.36-7.2h-.33v7.2h-4.95Z"/>
          <path d="M118.9,63.71c-1.06,0-2.04-.26-2.92-.78-.89-.52-1.59-1.22-2.11-2.1-.52-.88-.78-1.86-.78-2.95v-12.34c0-1.09.26-2.07.78-2.95.52-.88,1.22-1.58,2.11-2.1.88-.52,1.86-.78,2.92-.78s2.04.26,2.92.78c.89.52,1.59,1.22,2.11,2.1.52.88.78,1.86.78,2.95v7.47h-6.67v5.2c0,.22.08.42.25.6.17.18.37.27.61.27s.44-.09.6-.27c.16-.18.23-.38.23-.6v-3.5h4.98v3.53c-.04,1.02-.34,1.95-.88,2.77-.54.82-1.24,1.48-2.09,1.97-.85.49-1.8.73-2.84.73ZM118.04,48.34h1.69v-3.47c0-.24-.08-.44-.23-.6-.16-.16-.35-.23-.6-.23s-.45.08-.61.23c-.17.16-.25.36-.25.6v3.47Z"/>
          <path d="M128.87,63.38v-19.01h-3.15v-4.33h11.29v4.33h-3.15v19.01h-4.98Z"/>
        </g>
      </g>
      <g>
        <g>
          <path d="M12.02,12.89H0v-5.14C0,3.95,2.92.83,6.64.55l5.38,12.35Z"/>
          <polygon points="15.17 12.89 9.78 .52 22.28 .52 27.72 12.89 15.17 12.89"/>
          <polygon points="30.87 12.89 25.43 .52 37.99 .52 43.42 12.89 30.87 12.89"/>
          <path d="M54.02,7.76v5.14h-7.45L41.14.52h5.68c3.98,0,7.2,3.24,7.2,7.23Z"/>
        </g>
        <path d="M0,15.79v27.29C0,45.42,1.13,47.61,3.02,48.97l18.2,13.02c3.82,2.73,8.97,2.68,12.73-.14l17.17-12.87c1.82-1.37,2.9-3.51,2.9-5.8V15.79H0ZM42.08,19.31h3.77v1.54h-3.77v-1.54ZM30.78,19.31h3.77v1.54h-3.77v-1.54ZM25.13,19.31h3.77v1.54h-3.77v-1.54ZM19.47,19.31h3.77v1.54h-3.77v-1.54ZM8.17,19.31h3.77v1.54h-3.77v-1.54ZM3.67,19.31h2.61v1.54h-1.07v1.07h-1.54v-2.61ZM3.67,23.72h1.54v3.58h-1.54v-3.58ZM3.67,29.1h1.54v3.58h-1.54v-3.58ZM3.67,34.47h1.54v3.58h-1.54v-3.58ZM3.67,42.02v-2.17h1.54v2.17c0,.39.06.77.19,1.14l-1.46.49c-.18-.53-.27-1.08-.27-1.63ZM8,47.72l-2.21-1.58c-.28-.2-.54-.43-.77-.68l1.13-1.04c.16.17.34.33.53.47l2.21,1.58-.9,1.25ZM12.38,50.85l-2.92-2.09.9-1.25,2.92,2.09-.9,1.25ZM13.82,19.31h3.77v1.54h-3.77v-1.54ZM16.76,53.98l-2.92-2.09.9-1.25,2.92,2.09-.9,1.25ZM21.13,57.11l-2.92-2.09.9-1.25,2.92,2.09-.9,1.25ZM26.08,59.86c-1.01-.2-1.94-.6-2.78-1.2l-.71-.51.9-1.25.71.51c.66.47,1.39.79,2.18.94l-.3,1.51ZM23.88,43.48c-.58.34-1.31-.08-1.31-.76v-13c0-.67.73-1.09,1.31-.76l11.21,6.5c.58.34.58,1.17,0,1.51l-11.21,6.5ZM31.73,58.56c-1.06.8-2.33,1.28-3.65,1.4l-.14-1.53c1.04-.09,2.03-.47,2.86-1.1l.97,1.19-.05.03ZM33.21,57.45l-.92-1.23,2.87-2.15.92,1.23-2.87,2.15ZM36.43,19.31h3.77v1.54h-3.77v-1.54ZM37.52,54.23l-.92-1.23,2.87-2.15.92,1.23-2.87,2.15ZM41.83,51l-.92-1.23,2.87-2.15.92,1.23-2.87,2.15ZM48.33,46.13l-2.19,1.64-.92-1.23,2.19-1.64c.19-.14.36-.3.51-.47l1.15,1.02c-.22.25-.47.48-.74.67ZM50.35,42.08c0,.53-.08,1.05-.24,1.55l-1.47-.47c.11-.35.17-.71.17-1.08v-2.25h1.54v2.25ZM50.35,38.04h-1.54v-3.58h1.54v3.58ZM50.35,32.67h-1.54v-3.58h1.54v3.58ZM50.35,27.29h-1.54v-3.58h1.54v3.58ZM50.35,21.91h-1.54v-1.07h-1.07v-1.54h2.61v2.61Z"/>
      </g>
    </g>
  </g>
</svg>