<?xml version="1.0" encoding="UTF-8"?>
<svg id="Layer_2" xmlns="http://www.w3.org/2000/svg" viewBox="0 0 209 32">
  <g id="Layer_1-2" data-name="Layer_1">
    <g>
      <g>
        <g>
          <path d="M40.12,31.98c-1.41,0-2.61-.35-3.6-1.04-.99-.7-1.73-1.63-2.23-2.8-.5-1.17-.75-2.48-.75-3.93V7.77c0-1.07.27-2.07.79-3.02.53-.95,1.23-1.78,2.1-2.49s1.83-1.27,2.89-1.67S41.45,0,42.51,0c1.44,0,2.84.35,4.2,1.04,1.35.7,2.48,1.63,3.38,2.8.9,1.17,1.35,2.48,1.35,3.93v3.15h-6.54v-2.49c0-.68-.26-1.22-.77-1.62-.52-.4-1.05-.6-1.61-.6s-1.1.2-1.61.6c-.52.4-.77.94-.77,1.62v14.88c0,.65.28,1.23.84,1.73.56.5,1.16.75,1.81.75s1.3-.25,1.86-.75c.56-.5.84-1.08.84-1.73v-2.84h-3v-6.22h8.97v17.28h-5.96v-1.55h-.66c-.15.38-.49.73-1.04,1.02-.55.3-1.15.53-1.81.71s-1.27.27-1.83.27Z"/>
          <path d="M61.36,31.98c-1.41,0-2.71-.35-3.89-1.04-1.18-.7-2.11-1.63-2.8-2.8-.69-1.17-1.04-2.48-1.04-3.93V7.77c0-1.45.35-2.76,1.04-3.93.69-1.17,1.63-2.1,2.8-2.8C58.66.35,59.95,0,61.36,0s2.71.35,3.89,1.04c1.18.7,2.11,1.63,2.8,2.8.69,1.17,1.04,2.48,1.04,3.93v16.43c0,1.45-.35,2.76-1.04,3.93-.69,1.17-1.63,2.1-2.8,2.8-1.18.69-2.47,1.04-3.89,1.04ZM61.36,26.12c.32,0,.59-.11.79-.33.21-.22.31-.48.31-.78V6.93c0-.33-.1-.6-.31-.82-.21-.22-.47-.33-.79-.33s-.6.11-.82.33c-.22.22-.33.5-.33.82v18.08c0,.3.11.56.33.78.22.22.49.33.82.33Z"/>
          <path d="M78.63,31.98c-1.41,0-2.71-.35-3.89-1.04-1.18-.7-2.11-1.63-2.8-2.8-.69-1.17-1.04-2.48-1.04-3.93V7.77c0-1.45.35-2.76,1.04-3.93.69-1.17,1.63-2.1,2.8-2.8C75.92.35,77.22,0,78.63,0s2.71.35,3.89,1.04c1.18.7,2.11,1.63,2.8,2.8.69,1.17,1.04,2.48,1.04,3.93v16.43c0,1.45-.35,2.76-1.04,3.93-.69,1.17-1.63,2.1-2.8,2.8-1.18.69-2.47,1.04-3.89,1.04ZM78.63,26.12c.32,0,.59-.11.79-.33.21-.22.31-.48.31-.78V6.93c0-.33-.1-.6-.31-.82-.21-.22-.47-.33-.79-.33s-.6.11-.82.33c-.22.22-.33.5-.33.82v18.08c0,.3.11.56.33.78.22.22.49.33.82.33Z"/>
          <path d="M88.62,31.53V.44h7.73c1.44,0,2.74.35,3.91,1.04,1.16.7,2.09,1.63,2.78,2.8s1.04,2.48,1.04,3.93v15.54c0,1.45-.35,2.76-1.04,3.93s-1.62,2.1-2.78,2.8c-1.16.7-2.47,1.04-3.91,1.04h-7.73ZM95.2,25.8h1.24c.29,0,.54-.1.73-.31.19-.21.29-.44.29-.71V7.24c0-.27-.1-.5-.29-.71-.19-.21-.43-.31-.73-.31h-1.24v19.59Z"/>
        </g>
        <g>
          <path d="M107.77,31.53V.44h6.85c1.59,0,3.03.39,4.33,1.15,1.29.77,2.33,1.81,3.11,3.11.78,1.3,1.17,2.75,1.17,4.35v5.33c0,1.6-.39,3.05-1.17,4.35-.78,1.3-1.82,2.34-3.11,3.11-1.3.77-2.74,1.15-4.33,1.15h-.27v8.53h-6.58ZM114.35,17.23h.13c.38,0,.74-.04,1.06-.13.32-.09.58-.34.77-.76.19-.41.29-1.11.29-2.09v-5.02c0-1.01-.1-1.72-.29-2.13-.19-.41-.45-.67-.77-.75-.32-.09-.68-.13-1.06-.13h-.13v11.01Z"/>
          <path d="M132.73,31.98c-1.41,0-2.71-.35-3.89-1.04-1.18-.7-2.11-1.63-2.8-2.8-.69-1.17-1.04-2.48-1.04-3.93V7.77c0-1.45.35-2.76,1.04-3.93.69-1.17,1.63-2.1,2.8-2.8,1.18-.7,2.47-1.04,3.89-1.04s2.71.35,3.89,1.04c1.18.7,2.11,1.63,2.8,2.8.69,1.17,1.04,2.48,1.04,3.93v16.43c0,1.45-.35,2.76-1.04,3.93-.69,1.17-1.63,2.1-2.8,2.8-1.18.69-2.47,1.04-3.89,1.04ZM132.73,26.11c.32,0,.59-.11.79-.33.21-.22.31-.48.31-.78V6.93c0-.33-.1-.6-.31-.82-.21-.22-.47-.33-.79-.33s-.6.11-.82.33c-.22.22-.33.5-.33.82v18.08c0,.3.11.56.33.78.22.22.49.33.82.33Z"/>
          <path d="M150.22,31.98c-1.41,0-2.71-.35-3.89-1.04-1.18-.7-2.11-1.63-2.8-2.8-.69-1.17-1.04-2.48-1.04-3.93V7.77c0-1.45.35-2.76,1.04-3.93.69-1.17,1.63-2.1,2.8-2.8,1.18-.7,2.47-1.04,3.89-1.04s2.75.35,3.91,1.04c1.16.7,2.09,1.63,2.78,2.8.69,1.17,1.04,2.48,1.04,3.93v4.89h-6.54v-5.29c0-.33-.12-.6-.35-.82-.24-.22-.52-.33-.84-.33-.29,0-.56.11-.79.33-.24.22-.35.5-.35.82v17.28c0,.3.12.56.35.8.23.24.5.35.79.35.32,0,.6-.12.84-.35.23-.24.35-.5.35-.8v-5.33h6.54v4.89c0,1.45-.35,2.76-1.04,3.93-.69,1.17-1.62,2.1-2.78,2.8-1.16.69-2.47,1.04-3.91,1.04Z"/>
          <path d="M160.37,31.53V.44h6.58v8.88h.44l1.81-8.88h6.62v.89l-4.42,12.61v.67l4.42,16.03v.89h-6.62l-1.81-9.59h-.44v9.59h-6.58Z"/>
          <path d="M184.93,31.98c-1.41,0-2.71-.35-3.89-1.04-1.18-.7-2.11-1.63-2.8-2.8-.69-1.17-1.04-2.48-1.04-3.93V7.77c0-1.45.35-2.76,1.04-3.93.69-1.17,1.63-2.1,2.8-2.8,1.18-.7,2.47-1.04,3.89-1.04s2.71.35,3.89,1.04c1.18.7,2.11,1.63,2.8,2.8.69,1.17,1.04,2.48,1.04,3.93v9.95h-8.88v6.93c0,.3.11.56.33.8.22.24.49.35.82.35s.59-.12.79-.35c.21-.24.31-.5.31-.8v-4.66h6.62v4.71c-.06,1.36-.45,2.59-1.17,3.69-.72,1.1-1.65,1.97-2.78,2.62-1.13.65-2.39.98-3.78.98ZM183.78,11.5h2.25v-4.62c0-.33-.1-.59-.31-.8-.21-.21-.47-.31-.79-.31s-.6.1-.82.31c-.22.21-.33.47-.33.8v4.62Z"/>
          <path d="M198.18,31.53V6.22h-4.2V.44h15.02v5.77h-4.2v25.32h-6.63Z"/>
        </g>
      </g>
      <g>
        <g>
          <path d="M6.05,6.25H0v-2.59C0,1.75,1.47.18,3.34.03l2.71,6.22Z"/>
          <polygon points="8.13 6.25 5.42 .02 11.21 .02 13.94 6.25 8.13 6.25"/>
          <polygon points="16.03 6.25 13.29 .02 19.11 .02 21.85 6.25 16.03 6.25"/>
          <path d="M27.18,3.67v2.59h-3.25L21.19.02h2.36c2,0,3.62,1.63,3.62,3.64Z"/>
        </g>
        <path d="M0,7.71v13.75C0,22.64.57,23.75,1.52,24.43l9.16,6.56c1.92,1.38,4.51,1.35,6.4-.07l8.64-6.48c.92-.69,1.46-1.77,1.46-2.92V7.71H0ZM1.49,9.12h2.75v1.5h-1.25v1.25h-1.5v-2.75ZM1.49,19.27v-4.22h1.5v4.22h-1.5ZM5.7,25.44l-3-2.15c-.19-.14-.37-.3-.53-.49l1.14-.97c.08.09.16.17.26.24l3,2.15-.87,1.22ZM7.54,9.12h4.4v1.5h-4.4v-1.5ZM11.76,29.77c-.08-.05-.17-.11-.25-.16l-3.24-2.32.87-1.22,3.24,2.32c.05.04.1.07.15.1l-.78,1.28ZM12.01,21.66c-.29.17-.66-.04-.66-.38v-6.55c0-.34.37-.55.66-.38l5.64,3.27c.29.17.29.59,0,.76l-5.64,3.27ZM16.18,29.55c-.21.16-.44.3-.67.41l-.65-1.35c.15-.07.29-.15.42-.25l2.87-2.15.9,1.2-2.87,2.15ZM19.64,10.62h-4.4v-1.5h4.4v1.5ZM24.53,23.29l-2.95,2.21-.9-1.2,2.95-2.21c.09-.07.18-.15.25-.24l1.17.94c-.15.19-.33.36-.52.5ZM25.69,19.26h-1.5v-4.22h1.5v4.22ZM25.69,11.87h-1.5v-1.25h-1.25v-1.5h2.75v2.75Z"/>
      </g>
    </g>
  </g>
</svg>